Coordinates
version=1
nRows=4
nColumns=107
inDegrees=yes

Units are S.I. units (second, meters, Newtons, ...)
If the header above contains a line with 'inDegrees', this indicates whether rotational values are in degrees (yes) or radians (no).

endheader
time	sternoclavicular_r2	sternoclavicular_r3	unrotscap_r3	unrotscap_r2	acromioclavicular_r2	acromioclavicular_r3	acromioclavicular_r1	unrothum_r1	unrothum_r3	unrothum_r2	elv_angle	shoulder_elv	shoulder1_r2	shoulder_rot	elbow_flexion	pro_sup	deviation	flexion	proximal_distal_r1	proximal_distal_r3	cmc_flexion	cmc_abduction	mp_flexion	ip_flexion	mcp2_flexion	mcp2_abduction	pm2_flexion	md2_flexion	mcp3_flexion	mcp3_abduction	pm3_flexion	md3_flexion	mcp4_flexion	mcp4_abduction	pm4_flexion	md4_flexion	mcp5_flexion	mcp5_abduction	pm5_flexion	md5_flexion	bicpt_tx	bicpt_ty	bicpt_tz	bicpt2_tx	bicpt2_ty	bicpt2_tz	ptpt_tx	ptpt_ty	ptpt_tz	FCUpt_tx	FCUpt_ty	FCUpt_tz	EDCpt_tx	EDCpt_ty	EDCpt_tz	APLpt_tx	APLpt_ty	APLpt_tz	FPLpt_tx	FPLpt_ty	FPLpt_tz	FPLpt2_tx	FPLpt2_ty	FPLpt2_tz	PEC1pt2_tx	PEC1pt2_ty	PEC1pt2_tz	PEC1pt3_tx	PEC1pt3_ty	PEC1pt3_tz	PEC2pt2_tx	PEC2pt2_ty	PEC2pt2_tz	PEC2pt3_tx	PEC2pt3_ty	PEC2pt3_tz	PEC3pt2_tx	PEC3pt2_ty	PEC3pt2_tz	PEC3pt3_tx	PEC3pt3_ty	PEC3pt3_tz	DELT2pt2a_tx	DELT2pt2a_ty	DELT2pt2a_tz	DELT2pt2_tx	DELT2pt2_ty	DELT2pt2_tz	LAT1pt2_tx	LAT1pt2_ty	LAT1pt2_tz	LAT1pt3_tx	LAT1pt3_ty	LAT1pt3_tz	LAT2pt2_tx	LAT2pt2_ty	LAT2pt2_tz	LAT2pt3_tx	LAT2pt3_ty	LAT2pt3_tz	LAT3pt2_tx	LAT3pt2_ty	LAT3pt2_tz	LAT3pt3_tx	LAT3pt3_ty	LAT3pt3_tz
      0.00000000	     -0.31383145	      0.13292419	     -0.13292419	      0.31383145	     -0.06354448	      0.51354417	      0.23083457	     -0.23083457	     -0.51354417	      0.06354448	    101.13621612	     74.30238476	     -1.76515996	    -36.39125099	     31.33287086	     83.66416910	      0.34745976	     -0.59079103	      0.37273519	     -0.29539552	     40.15919650	    -21.23857036	      0.39361103	      5.13147229	     81.77045654	     13.39401945	     77.12789699	     85.93956894	     89.97324755	      1.99277207	     79.19922128	     56.42973506	     87.67276375	    -13.47547450	     89.22877747	     42.34224168	     95.34671615	    -14.28279819	     86.34845712	      5.46196890	      0.00093639	     -0.03119123	     -0.00487845	      0.01447512	     -0.01871173	     -0.00147223	      0.00136816	     -0.06889728	     -0.00678960	      0.01247051	     -0.18231606	      0.00002151	     -0.01003968	      0.00345067	     -0.00068369	      0.00031216	      0.00012487	      0.00062433	      0.00039957	      0.00119870	      0.00067427	     -0.00001028	     -0.00010800	     -0.00012960	      0.00243547	      0.00854478	      0.00594420	     -0.00796687	      0.01923608	     -0.01824538	      0.00243547	      0.00854478	      0.00594420	      0.00053663	      0.01783259	     -0.00937036	      0.00387672	      0.00475164	      0.01579091	      0.00000000	      0.00738091	      0.00000000	     -0.00697617	     -0.03223901	     -0.00608357	      0.02143810	     -0.00098060	     -0.01084332	     -0.00086686	      0.01453026	     -0.00594420	      0.00239419	      0.02096980	     -0.01733724	     -0.00582036	      0.01259014	     -0.00532501	     -0.01213607	      0.02658376	     -0.02976226	     -0.02278608	      0.01407619	     -0.00714129	     -0.01510816	      0.03071168	     -0.03719250
      0.03333333	     -0.31343689	      0.13275707	     -0.13275707	      0.31343689	     -0.06346459	      0.51289852	      0.23054436	     -0.23054436	     -0.51289852	      0.06346459	    100.97243785	     74.20896903	     -1.76230149	    -36.08731682	     31.79711836	     83.93248315	      0.34756858	     -0.59273100	      0.37282065	     -0.29636550	     40.38543703	    -21.07718433	      0.52024143	      5.16515780	     81.87385666	     13.39449503	     77.16066811	     85.93443798	     90.03636279	      1.97533638	     79.23014467	     56.43018986	     87.66487418	    -13.47965927	     89.24751830	     42.34810649	     95.31398935	    -14.28887131	     86.36291174	      5.46595827	      0.00095175	     -0.03124444	     -0.00488702	      0.01444873	     -0.01883784	     -0.00142710	      0.00134834	     -0.06891010	     -0.00681121	      0.01250115	     -0.18230714	      0.00002846	     -0.01007187	      0.00346522	     -0.00069199	      0.00031222	      0.00012489	      0.00062445	      0.00039965	      0.00119894	      0.00067441	     -0.00000998	     -0.00010353	     -0.00012424	      0.00243241	      0.00853404	      0.00593672	     -0.00795686	      0.01921189	     -0.01822244	      0.00243241	      0.00853404	      0.00593672	      0.00053595	      0.01781017	     -0.00935858	      0.00387312	      0.00474567	      0.01578183	      0.00000000	      0.00736225	      0.00000000	     -0.00696740	     -0.03219847	     -0.00606807	      0.02132871	     -0.00096975	     -0.01067444	     -0.00086577	      0.01451199	     -0.00593672	      0.00239118	      0.02094344	     -0.01731544	     -0.00581304	      0.01257431	     -0.00531831	     -0.01212081	      0.02655034	     -0.02972484	     -0.02275744	      0.01405849	     -0.00713231	     -0.01508917	      0.03067307	     -0.03714574
      0.06666667	     -0.31467078	      0.13327969	     -0.13327969	      0.31467078	     -0.06371443	      0.51491762	      0.23145193	     -0.23145193	     -0.51491762	      0.06371443	    100.81480881	     74.50110306	     -1.75955035	    -34.98361348	     31.47983679	     83.22225921	      0.33596309	     -0.63850241	      0.36356341	     -0.31925121	     40.86998358	    -20.96380009	      2.58265987	      4.41108112	     83.78691905	     13.39926286	     78.23711767	     85.15989054	     91.01147730	      1.98347095	     79.83500967	     55.55816155	     88.09360327	    -13.47360848	     88.95521196	     43.55511069	     95.16985711	    -14.28107839	     86.84150785	      5.47935751	      0.00094126	     -0.03120807	     -0.00488117	      0.01451821	     -0.01875165	     -0.00154631	      0.00140081	     -0.06887617	     -0.00675400	      0.01242010	     -0.18233071	      0.00001019	     -0.00998665	      0.00342677	     -0.00067012	      0.00031186	      0.00012474	      0.00062372	      0.00039918	      0.00119755	      0.00067362	     -0.00000929	     -0.00009377	     -0.00011253	      0.00244198	      0.00856763	      0.00596009	     -0.00798818	      0.01928752	     -0.01829418	      0.00244198	      0.00856763	      0.00596009	      0.00053806	      0.01788028	     -0.00939542	      0.00388437	      0.00476435	      0.01581014	      0.00000000	      0.00742070	      0.00000000	     -0.00699483	     -0.03232523	     -0.00611662	      0.02092115	     -0.00093052	     -0.01006892	     -0.00086918	      0.01456912	     -0.00596009	      0.00240059	      0.02102588	     -0.01738361	     -0.00583592	      0.01262381	     -0.00533925	     -0.01216852	      0.02665486	     -0.02984186	     -0.02284702	      0.01411383	     -0.00716039	     -0.01514857	      0.03079382	     -0.03729197
      0.10000000	     -0.31401606	      0.13300238	     -0.13300238	      0.31401606	     -0.06358187	      0.51384627	      0.23097036	     -0.23097036	     -0.51384627	      0.06358187	    101.07379068	     74.34609422	     -1.76407043	    -35.98279236	     31.47027558	     83.83428641	      0.31179651	     -0.69348416	      0.34357919	     -0.34674208	     41.15455344	    -20.87520020	      3.74163097	      4.16928112	     84.92714490	     13.38902816	     78.13728553	     86.56569682	     91.62493429	      1.87908009	     79.81294004	     55.75527835	     88.40468443	    -13.48440400	     89.14976132	     43.17168332	     95.43153857	    -14.28205190	     86.89983096	      5.49618394	      0.00094094	     -0.03120697	     -0.00488099	      0.01445841	     -0.01874905	     -0.00144363	      0.00135559	     -0.06890541	     -0.00680330	      0.01248994	     -0.18231041	      0.00002591	     -0.01006009	      0.00345989	     -0.00068895	      0.00030679	      0.00012271	      0.00061357	      0.00039269	      0.00117806	      0.00066266	     -0.00000885	     -0.00008792	     -0.00010551	      0.00243690	      0.00854981	      0.00594769	     -0.00797156	      0.01924739	     -0.01825611	      0.00243690	      0.00854981	      0.00594769	      0.00053694	      0.01784308	     -0.00937588	      0.00387840	      0.00475444	      0.01579515	      0.00000000	      0.00738966	      0.00000000	     -0.00698028	     -0.03225797	     -0.00609083	      0.02129082	     -0.00096602	     -0.01061656	     -0.00086737	      0.01453880	     -0.00594769	      0.00239560	      0.02098214	     -0.01734744	     -0.00582378	      0.01259754	     -0.00532814	     -0.01214321	      0.02659940	     -0.02977977	     -0.02279949	      0.01408447	     -0.00714549	     -0.01511705	      0.03072974	     -0.03721438
